<svg width="253" height="64" viewBox="0 0 253 64" fill="none" xmlns="http://www.w3.org/2000/svg">
<path d="M0.912 53L8.016 17.384H15.504L12.48 32.408L10.464 39.944L9.312 46.568L8.016 53H0.912ZM17.424 53.384C15.44 53.384 13.696 53.032 12.192 52.328C10.72 51.624 9.568 50.552 8.736 49.112C7.936 47.64 7.536 45.8 7.536 43.592C7.536 41.256 7.824 39.064 8.4 37.016C8.976 34.968 9.824 33.192 10.944 31.688C12.064 30.152 13.424 28.952 15.024 28.088C16.656 27.224 18.496 26.792 20.544 26.792C22.56 26.792 24.416 27.256 26.112 28.184C27.808 29.08 29.168 30.392 30.192 32.12C31.216 33.816 31.728 35.896 31.728 38.36C31.728 40.504 31.36 42.504 30.624 44.36C29.888 46.184 28.864 47.768 27.552 49.112C26.272 50.456 24.768 51.512 23.04 52.28C21.312 53.016 19.44 53.384 17.424 53.384ZM16.56 47.192C18.064 47.192 19.376 46.84 20.496 46.136C21.616 45.4 22.496 44.408 23.136 43.16C23.808 41.88 24.144 40.392 24.144 38.696C24.144 36.936 23.632 35.544 22.608 34.52C21.584 33.496 20.128 32.984 18.24 32.984C16.8 32.984 15.504 33.352 14.352 34.088C13.2 34.792 12.304 35.784 11.664 37.064C11.024 38.312 10.704 39.784 10.704 41.48C10.704 43.24 11.216 44.632 12.24 45.656C13.264 46.68 14.704 47.192 16.56 47.192ZM34.0526 53L41.1566 17.384H48.6446L41.5406 53H34.0526ZM60.1541 53.384C58.1701 53.384 56.3301 52.936 54.6341 52.04C52.9381 51.112 51.5781 49.784 50.5541 48.056C49.5301 46.328 49.0181 44.248 49.0181 41.816C49.0181 39.64 49.3701 37.64 50.0741 35.816C50.8101 33.992 51.8341 32.408 53.1461 31.064C54.4581 29.72 55.9781 28.68 57.7061 27.944C59.4341 27.176 61.2901 26.792 63.2741 26.792C65.4181 26.792 67.2581 27.192 68.7941 27.992C70.3301 28.792 71.4661 30.04 72.2021 31.736C72.9701 33.4 73.2421 35.56 73.0181 38.216C72.8581 41.256 72.2341 43.928 71.1461 46.232C70.0581 48.504 68.5861 50.264 66.7301 51.512C64.9061 52.76 62.7141 53.384 60.1541 53.384ZM62.4581 47.192C63.9301 47.192 65.2261 46.84 66.3461 46.136C67.4981 45.4 68.3941 44.408 69.0341 43.16C69.7061 41.88 70.0421 40.392 70.0421 38.696C70.0421 36.936 69.5141 35.544 68.4581 34.52C67.4341 33.496 65.9941 32.984 64.1381 32.984C62.6981 32.984 61.4021 33.352 60.2501 34.088C59.0981 34.792 58.1861 35.784 57.5141 37.064C56.8741 38.312 56.5541 39.784 56.5541 41.48C56.5541 43.24 57.0661 44.632 58.0901 45.656C59.1461 46.68 60.6021 47.192 62.4581 47.192ZM67.5941 53L68.6021 47.864L70.2821 40.184L71.2901 32.504L72.3461 27.176H79.8341L74.6981 53H67.5941Z" fill="black"/>
<path d="M117.816 20.552C119.832 20.552 121.624 20.968 123.192 21.8C124.792 22.6 126.04 23.848 126.936 25.544C127.864 27.24 128.328 29.432 128.328 32.12V47H119.208V33.608C119.208 31.752 118.856 30.408 118.152 29.576C117.448 28.712 116.488 28.28 115.272 28.28C114.408 28.28 113.624 28.488 112.92 28.904C112.216 29.32 111.672 29.96 111.288 30.824C110.904 31.656 110.712 32.744 110.712 34.088V47H101.592V33.608C101.592 31.752 101.24 30.408 100.536 29.576C99.864 28.712 98.904 28.28 97.656 28.28C96.76 28.28 95.96 28.488 95.256 28.904C94.584 29.32 94.04 29.96 93.624 30.824C93.24 31.656 93.048 32.744 93.048 34.088V47H83.928V20.984H92.616V28.232L90.888 26.168C91.848 24.312 93.16 22.92 94.824 21.992C96.488 21.032 98.344 20.552 100.392 20.552C102.728 20.552 104.776 21.16 106.536 22.376C108.328 23.56 109.528 25.416 110.136 27.944L107.16 27.32C108.088 25.208 109.48 23.56 111.336 22.376C113.224 21.16 115.384 20.552 117.816 20.552ZM147.468 47.432C144.62 47.432 142.092 46.856 139.884 45.704C137.676 44.552 135.932 42.968 134.652 40.952C133.404 38.904 132.78 36.568 132.78 33.944C132.78 31.32 133.404 29 134.652 26.984C135.932 24.968 137.676 23.4 139.884 22.28C142.092 21.128 144.62 20.552 147.468 20.552C150.316 20.552 152.844 21.128 155.052 22.28C157.292 23.4 159.036 24.968 160.284 26.984C161.532 29 162.156 31.32 162.156 33.944C162.156 36.568 161.532 38.904 160.284 40.952C159.036 42.968 157.292 44.552 155.052 45.704C152.844 46.856 150.316 47.432 147.468 47.432ZM147.468 40.184C148.524 40.184 149.452 39.944 150.252 39.464C151.084 38.984 151.74 38.28 152.22 37.352C152.7 36.392 152.94 35.256 152.94 33.944C152.94 32.632 152.7 31.528 152.22 30.632C151.74 29.704 151.084 29 150.252 28.52C149.452 28.04 148.524 27.8 147.468 27.8C146.444 27.8 145.516 28.04 144.684 28.52C143.884 29 143.228 29.704 142.716 30.632C142.236 31.528 141.996 32.632 141.996 33.944C141.996 35.256 142.236 36.392 142.716 37.352C143.228 38.28 143.884 38.984 144.684 39.464C145.516 39.944 146.444 40.184 147.468 40.184ZM177.709 47.432C175.341 47.432 173.181 46.888 171.229 45.8C169.309 44.68 167.773 43.128 166.621 41.144C165.469 39.128 164.893 36.728 164.893 33.944C164.893 31.192 165.469 28.824 166.621 26.84C167.773 24.824 169.309 23.272 171.229 22.184C173.181 21.096 175.341 20.552 177.709 20.552C179.949 20.552 181.837 21.032 183.373 21.992C184.941 22.952 186.125 24.424 186.925 26.408C187.725 28.392 188.125 30.904 188.125 33.944C188.125 37.048 187.741 39.592 186.973 41.576C186.205 43.56 185.053 45.032 183.517 45.992C181.981 46.952 180.045 47.432 177.709 47.432ZM179.629 40.184C180.653 40.184 181.565 39.944 182.365 39.464C183.197 38.984 183.853 38.28 184.333 37.352C184.813 36.392 185.053 35.256 185.053 33.944C185.053 32.632 184.813 31.528 184.333 30.632C183.853 29.704 183.197 29 182.365 28.52C181.565 28.04 180.653 27.8 179.629 27.8C178.573 27.8 177.629 28.04 176.797 28.52C175.997 29 175.357 29.704 174.877 30.632C174.397 31.528 174.157 32.632 174.157 33.944C174.157 35.256 174.397 36.392 174.877 37.352C175.357 38.28 175.997 38.984 176.797 39.464C177.629 39.944 178.573 40.184 179.629 40.184ZM185.341 47V42.536L185.389 33.944L184.909 25.352V11.384H194.029V47H185.341ZM215.785 47V42.152L215.161 40.952V32.024C215.161 30.584 214.713 29.48 213.817 28.712C212.953 27.912 211.561 27.512 209.641 27.512C208.393 27.512 207.129 27.72 205.849 28.136C204.569 28.52 203.481 29.064 202.585 29.768L199.513 23.576C200.985 22.616 202.745 21.88 204.793 21.368C206.873 20.824 208.937 20.552 210.985 20.552C215.209 20.552 218.473 21.528 220.777 23.48C223.113 25.4 224.281 28.424 224.281 32.552V47H215.785ZM208.105 47.432C206.025 47.432 204.265 47.08 202.825 46.376C201.385 45.672 200.281 44.712 199.513 43.496C198.777 42.28 198.409 40.92 198.409 39.416C198.409 37.816 198.809 36.44 199.609 35.288C200.441 34.104 201.705 33.208 203.401 32.6C205.097 31.96 207.289 31.64 209.977 31.64H216.121V36.392H211.225C209.753 36.392 208.713 36.632 208.105 37.112C207.529 37.592 207.241 38.232 207.241 39.032C207.241 39.832 207.545 40.472 208.153 40.952C208.761 41.432 209.593 41.672 210.649 41.672C211.641 41.672 212.537 41.432 213.337 40.952C214.169 40.44 214.777 39.672 215.161 38.648L216.409 42.008C215.929 43.8 214.985 45.16 213.577 46.088C212.201 46.984 210.377 47.432 208.105 47.432Z" fill="black"/>
</svg>
